<svg version="1.1" id="Layer_1" xmlns="http://www.w3.org/2000/svg" xmlns:xlink="http://www.w3.org/1999/xlink" x="0px" y="0px"
	 width="100%" viewBox="0 0 400 106" enable-background="new 0 0 400 106" xml:space="preserve">
<path fill="#0A0A0A" opacity="1.000000" stroke="none" 
	d="
M1.000000,106.000000 
	C1.000000,71.025116 1.000000,36.050228 1.000000,1.037670 
	C134.212540,1.037670 267.425110,1.037670 401.000000,1.037670 
	C401.000000,35.686722 401.000000,70.374702 400.534058,105.541443 
	C267.045380,106.013466 134.022690,106.006729 1.000000,106.000000 
M227.500061,3.854420 
	C153.103348,3.854420 78.706619,3.854420 4.332122,3.854420 
	C4.332122,37.443905 4.332122,70.492455 4.332122,103.518089 
	C135.668579,103.518089 266.686584,103.518089 397.685944,103.518089 
	C397.685944,70.156097 397.685944,37.090912 397.685944,3.854419 
	C341.090393,3.854419 284.795258,3.854419 227.500061,3.854420 
z"/>
<path fill="#707070" opacity="1.000000" stroke="none" 
	d="
M1.000000,106.500000 
	C134.022690,106.006729 267.045380,106.013466 400.534058,106.010101 
	C399.668732,106.333328 398.337738,106.957047 397.006195,106.958206 
	C340.909485,107.006897 284.812775,107.000000 228.716049,107.000000 
	C152.810699,107.000000 76.905350,107.000000 1.000000,106.500000 
z"/>
<path fill="#FCFCFC" opacity="1.000000" stroke="none" 
	d="
M228.000076,3.854420 
	C284.795258,3.854419 341.090393,3.854419 397.685944,3.854419 
	C397.685944,37.090912 397.685944,70.156097 397.685944,103.518089 
	C266.686584,103.518089 135.668579,103.518089 4.332122,103.518089 
	C4.332122,70.492455 4.332122,37.443905 4.332122,3.854420 
	C78.706619,3.854420 153.103348,3.854420 228.000076,3.854420 
M16.032331,55.499996 
	C16.032331,68.930328 16.032331,82.360664 16.032331,95.737503 
	C71.325821,95.737503 126.047722,95.737503 180.631210,95.737503 
	C180.631210,67.574547 180.631210,39.701321 180.631210,11.933100 
	C125.662590,11.933100 71.060455,11.933100 16.032331,11.933100 
	C16.032331,26.253086 16.032331,40.376537 16.032331,55.499996 
M220.840897,42.609146 
	C220.840897,50.327553 220.840897,58.045959 220.840897,66.003319 
	C225.544891,66.003319 229.776276,66.579102 233.751938,65.818367 
	C236.848373,65.225883 240.716248,63.646053 242.207275,61.242970 
	C243.438889,59.257992 241.693100,55.425625 241.397781,53.338810 
	C241.397781,49.519932 242.248016,46.165005 241.206512,43.569031 
	C239.470398,39.241741 224.420166,38.128384 220.840897,42.609146 
M264.533508,39.927887 
	C263.572479,42.867668 262.611420,45.807453 261.618896,48.843521 
	C259.607239,48.843521 257.185913,48.843521 254.422150,48.843521 
	C254.422150,45.765419 254.422150,42.991058 254.422150,40.150688 
	C251.821671,40.150688 249.571564,40.150688 247.347809,40.150688 
	C247.347809,48.901249 247.347809,57.420731 247.347809,65.842560 
	C249.836853,65.842560 251.970444,65.842560 254.390427,65.842560 
	C254.535461,62.627232 254.673950,59.556931 254.814453,56.442146 
	C257.553223,56.442146 259.929810,56.442146 262.626953,56.442146 
	C262.626953,59.690289 262.626953,62.623394 262.626953,65.779358 
	C265.196655,65.779358 267.436432,65.779358 269.888519,65.779358 
	C269.888519,57.227997 269.888519,48.835506 269.888519,39.923794 
	C268.383148,39.923794 266.941498,39.923794 264.533508,39.927887 
M363.993195,56.466713 
	C363.993195,59.577518 363.993195,62.688328 363.993195,65.754410 
	C366.741821,65.754410 368.984375,65.754410 371.713562,65.754410 
	C371.713562,62.434166 371.713562,59.353168 371.713562,56.272171 
	C372.200653,56.010128 372.687775,55.748089 373.174866,55.486046 
	C374.337341,56.883282 376.045258,58.104145 376.564392,59.709438 
	C378.439117,65.506828 382.090179,67.393654 388.139740,65.546623 
	C387.354309,63.940479 386.813110,62.173016 385.758850,60.799282 
	C382.324615,56.324314 381.481842,51.922791 384.816681,46.914238 
	C386.082581,45.012920 386.461731,42.521141 387.294281,40.158749 
	C384.231903,40.158749 381.783936,40.158749 379.930481,40.158749 
	C376.992767,43.239784 378.756287,49.711624 371.431488,48.852428 
	C371.431488,45.838226 371.431488,42.967194 371.431488,40.247871 
	C368.605591,40.247871 366.381714,40.247871 363.993195,40.247871 
	C363.993195,45.543121 363.993195,50.511269 363.993195,56.466713 
M328.880585,40.165077 
	C328.552246,43.043652 328.223877,45.922226 327.888641,48.861183 
	C325.384064,48.861183 322.988678,48.861183 320.216370,48.861183 
	C320.216370,45.837421 320.216370,43.089043 320.216370,40.175171 
	C317.606262,40.175171 315.384033,40.175171 313.047821,40.175171 
	C313.047821,48.821152 313.047821,57.214466 313.047821,65.759094 
	C315.489838,65.759094 317.720184,65.759094 320.435730,65.759094 
	C320.435730,62.453873 320.435730,59.389530 320.435730,56.323586 
	C323.207428,56.323586 325.485657,56.323586 328.052124,56.323586 
	C328.200806,59.573944 328.341187,62.642330 328.485596,65.798615 
	C331.059052,65.798615 333.312775,65.798615 335.605591,65.798615 
	C335.605591,57.069954 335.605591,48.553131 335.605591,39.943306 
	C333.430023,39.943306 331.603943,39.943306 328.880585,40.165077 
M290.129272,41.510193 
	C285.617004,47.442295 287.184143,52.713303 294.063873,55.024052 
	C296.514343,55.847107 298.876495,56.933105 301.278961,57.899075 
	C301.112610,58.633980 300.946228,59.368881 300.779877,60.103786 
	C299.091705,60.029182 297.313721,60.265636 295.735687,59.809849 
	C293.118805,59.054005 290.630554,57.852898 287.168121,56.472603 
	C287.824371,62.388023 289.988220,65.066277 293.957306,65.973351 
	C298.466675,67.003914 303.032196,67.142822 306.566620,63.477985 
	C309.833588,60.090473 308.796967,54.277897 304.519440,52.014523 
	C302.350464,50.866867 299.753510,50.540058 297.548615,49.443085 
	C296.497681,48.920219 295.910309,47.465488 295.112976,46.432865 
	C296.572784,46.191578 298.163361,45.462086 299.465149,45.810783 
	C302.163330,46.533543 304.708099,47.829155 308.073853,49.197315 
	C306.278595,39.714970 299.767853,37.197624 290.129272,41.510193 
M198.421219,65.207870 
	C199.932190,62.553570 207.400909,60.587799 208.378937,62.867569 
	C210.576202,67.989342 214.291855,65.376503 217.928268,65.958153 
	C214.460419,57.023724 211.176270,48.562580 207.545380,39.208134 
	C204.830612,40.047020 200.744949,40.112217 199.956406,41.757568 
	C196.267517,49.454845 193.487228,57.587582 190.279739,65.828140 
	C193.192337,65.828140 195.501801,65.828140 198.421219,65.207870 
M356.385803,45.986992 
	C361.584503,45.947849 358.121948,42.286087 359.318115,40.184624 
	C353.016083,40.184624 347.285339,40.184624 341.426758,40.184624 
	C341.426758,48.852306 341.426758,57.251244 341.426758,65.711594 
	C347.591644,65.711594 353.492249,65.711594 359.372437,65.711594 
	C359.372437,63.669258 359.372437,61.931995 359.372437,60.228916 
	C349.160980,59.260651 349.160980,59.260651 349.266510,55.898212 
	C350.718109,55.898212 352.186340,55.927132 353.652893,55.889988 
	C355.089569,55.853603 356.524536,55.749950 358.165527,55.665218 
	C358.069061,53.483112 357.991730,51.734386 357.916504,50.032864 
	C349.049072,49.578194 349.049072,49.578194 349.498322,45.987331 
	C351.457336,45.987331 353.442963,45.987331 356.385803,45.986992 
M275.857452,60.416031 
	C275.857452,62.179127 275.857452,63.942219 275.857452,65.685684 
	C278.603455,65.685684 280.820740,65.685684 282.934204,65.685684 
	C282.934204,56.995216 282.934204,48.615349 282.934204,40.258137 
	C280.447357,40.258137 278.237885,40.258137 275.857452,40.258137 
	C275.857452,46.863518 275.857452,53.149685 275.857452,60.416031 
z"/>
<path fill="#020202" opacity="1.000000" stroke="none" 
	d="
M16.032331,54.999992 
	C16.032331,40.376537 16.032331,26.253086 16.032331,11.933100 
	C71.060455,11.933100 125.662590,11.933100 180.631210,11.933100 
	C180.631210,39.701321 180.631210,67.574547 180.631210,95.737503 
	C126.047722,95.737503 71.325821,95.737503 16.032331,95.737503 
	C16.032331,82.360664 16.032331,68.930328 16.032331,54.999992 
M109.249641,61.949192 
	C110.922478,63.475510 112.649086,64.066010 112.718437,60.997169 
	C112.897591,53.068821 112.778458,45.133732 112.778458,35.806835 
	C105.337250,39.672054 104.178078,47.346485 99.151550,51.825581 
	C97.130661,48.815689 95.179108,45.932087 93.251175,43.032780 
	C89.346107,37.160179 89.351387,37.156666 86.211884,37.517151 
	C86.211884,45.970676 86.211884,54.417873 86.211884,63.420044 
	C91.507477,61.699463 88.822990,57.630470 89.215683,54.886150 
	C89.678474,51.651939 89.324219,48.300816 89.324219,45.000385 
	C92.421173,47.780605 94.360832,50.635082 96.208549,53.547886 
	C98.281448,56.815689 100.196770,57.248161 102.410942,53.611759 
	C104.239471,50.608723 106.336777,47.769348 108.314980,44.857452 
	C108.611412,44.977207 108.907845,45.096966 109.204277,45.216724 
	C109.204277,50.488331 109.204277,55.759941 109.249641,61.949192 
M165.923157,55.489819 
	C163.883728,53.470009 165.780945,52.930466 167.129379,51.990974 
	C170.456940,49.672562 170.962952,46.284462 170.068359,42.671638 
	C169.152771,38.973995 166.384064,37.202465 162.752640,37.006241 
	C159.151093,36.811634 155.530823,36.963657 151.750992,36.963657 
	C151.750992,45.821957 151.750992,54.258430 151.750992,63.284470 
	C157.948639,61.756741 152.848541,56.166996 155.286148,54.169559 
	C160.717819,52.144691 162.222702,56.149170 164.393692,59.240833 
	C165.758209,61.183998 166.628510,64.342033 170.503998,62.374855 
	C169.056488,60.227859 167.676849,58.181522 165.923157,55.489819 
M75.881355,43.596542 
	C75.881355,41.469303 75.881355,39.342068 75.881355,37.214828 
	C75.352356,36.966915 74.823357,36.719002 74.294365,36.471085 
	C73.614204,37.561703 72.414444,38.620831 72.346115,39.748520 
	C72.085480,44.049797 72.333321,48.380268 72.120720,52.686481 
	C71.858810,57.991405 69.774536,60.130844 65.414993,60.039436 
	C61.179764,59.950638 59.154297,57.641708 58.984055,52.360775 
	C58.845051,48.048882 59.012886,43.726620 58.849098,39.416389 
	C58.816475,38.557835 57.897831,37.732948 57.387749,36.892536 
	C56.726349,37.600231 55.497200,38.305187 55.493767,39.016056 
	C55.467369,44.484760 55.351395,49.988407 55.911449,55.414295 
	C56.437695,60.512684 59.972889,63.235062 65.076836,63.439568 
	C70.494110,63.656628 74.200752,61.191856 75.181297,55.934868 
	C75.872551,52.228851 75.679550,48.357899 75.881355,43.596542 
M40.898041,49.668671 
	C42.927216,45.652004 44.956390,41.635342 47.206932,37.180496 
	C43.219795,37.428661 42.986912,37.358200 41.749020,41.449558 
	C40.124027,46.820332 36.940659,49.111622 30.893082,47.636372 
	C30.893082,44.218372 30.893082,40.653141 30.893082,36.999489 
	C27.191206,37.767338 26.502804,43.092148 27.636452,60.091148 
	C27.711647,61.218708 28.796877,62.278904 29.412312,63.370434 
	C29.957470,63.146816 30.502626,62.923203 31.047783,62.699585 
	C31.047783,58.937454 31.047783,55.175327 31.047783,51.580532 
	C35.649021,50.189518 38.349754,51.662617 39.954948,55.665409 
	C40.689541,57.497215 41.681099,59.304958 42.917606,60.830639 
	C43.848351,61.979057 45.354813,62.660881 46.605000,63.550400 
	C46.899315,63.213638 47.193626,62.876877 47.487942,62.540119 
	C45.288589,58.503029 43.089233,54.465939 40.898041,49.668671 
M128.855515,41.231987 
	C125.917953,48.342548 122.980377,55.453114 119.768120,63.228577 
	C121.511909,62.852890 123.412918,62.786060 123.490227,62.375679 
	C124.821342,55.309513 130.256699,57.318073 134.739868,57.014992 
	C137.377686,56.836658 139.003372,57.458733 139.938828,60.206753 
	C140.383667,61.513512 142.059662,62.401176 143.177933,63.478691 
	C143.541687,63.137268 143.905441,62.795841 144.269196,62.454414 
	C141.245316,55.140793 138.275986,47.803703 135.148560,40.534634 
	C134.568436,39.186245 133.351257,38.111942 132.428116,36.911137 
	C131.309372,38.101875 130.190643,39.292614 128.855515,41.231987 
z"/>
<path fill="#070707" opacity="1.000000" stroke="none" 
	d="
M220.844223,42.119331 
	C224.420166,38.128384 239.470398,39.241741 241.206512,43.569031 
	C242.248016,46.165005 241.397781,49.519932 241.397781,53.338810 
	C241.693100,55.425625 243.438889,59.257992 242.207275,61.242970 
	C240.716248,63.646053 236.848373,65.225883 233.751938,65.818367 
	C229.776276,66.579102 225.544891,66.003319 220.840897,66.003319 
	C220.840897,58.045959 220.840897,50.327553 220.844223,42.119331 
M228.037430,47.748932 
	C229.080383,48.543743 230.044418,49.800446 231.189758,49.996181 
	C232.219696,50.172199 233.584946,49.353096 234.509308,48.608978 
	C234.798416,48.376240 234.102783,46.196289 233.913147,46.204369 
	C231.952484,46.287903 230.003143,46.637177 228.037430,47.748932 
M229.612946,55.560619 
	C228.969193,56.898113 228.325455,58.235603 227.681702,59.573097 
	C228.114136,60.043720 228.546570,60.514347 228.979004,60.984974 
	C231.085297,60.075233 233.191605,59.165497 235.297897,58.255764 
	C233.716599,57.347927 232.135300,56.440094 229.612946,55.560619 
z"/>
<path fill="#060606" opacity="1.000000" stroke="none" 
	d="
M265.016693,39.925842 
	C266.941498,39.923794 268.383148,39.923794 269.888519,39.923794 
	C269.888519,48.835506 269.888519,57.227997 269.888519,65.779358 
	C267.436432,65.779358 265.196655,65.779358 262.626953,65.779358 
	C262.626953,62.623394 262.626953,59.690289 262.626953,56.442146 
	C259.929810,56.442146 257.553223,56.442146 254.814453,56.442146 
	C254.673950,59.556931 254.535461,62.627232 254.390427,65.842560 
	C251.970444,65.842560 249.836853,65.842560 247.347809,65.842560 
	C247.347809,57.420731 247.347809,48.901249 247.347809,40.150688 
	C249.571564,40.150688 251.821671,40.150688 254.422150,40.150688 
	C254.422150,42.991058 254.422150,45.765419 254.422150,48.843521 
	C257.185913,48.843521 259.607239,48.843521 261.618896,48.843521 
	C262.611420,45.807453 263.572479,42.867668 265.016693,39.925842 
z"/>
<path fill="#080808" opacity="1.000000" stroke="none" 
	d="
M363.993195,55.973064 
	C363.993195,50.511269 363.993195,45.543121 363.993195,40.247871 
	C366.381714,40.247871 368.605591,40.247871 371.431488,40.247871 
	C371.431488,42.967194 371.431488,45.838226 371.431488,48.852428 
	C378.756287,49.711624 376.992767,43.239784 379.930481,40.158749 
	C381.783936,40.158749 384.231903,40.158749 387.294281,40.158749 
	C386.461731,42.521141 386.082581,45.012920 384.816681,46.914238 
	C381.481842,51.922791 382.324615,56.324314 385.758850,60.799282 
	C386.813110,62.173016 387.354309,63.940479 388.139740,65.546623 
	C382.090179,67.393654 378.439117,65.506828 376.564392,59.709438 
	C376.045258,58.104145 374.337341,56.883282 373.174866,55.486046 
	C372.687775,55.748089 372.200653,56.010128 371.713562,56.272171 
	C371.713562,59.353168 371.713562,62.434166 371.713562,65.754410 
	C368.984375,65.754410 366.741821,65.754410 363.993195,65.754410 
	C363.993195,62.688328 363.993195,59.577518 363.993195,55.973064 
z"/>
<path fill="#060606" opacity="1.000000" stroke="none" 
	d="
M329.329224,40.054192 
	C331.603943,39.943306 333.430023,39.943306 335.605591,39.943306 
	C335.605591,48.553131 335.605591,57.069954 335.605591,65.798615 
	C333.312775,65.798615 331.059052,65.798615 328.485596,65.798615 
	C328.341187,62.642330 328.200806,59.573944 328.052124,56.323586 
	C325.485657,56.323586 323.207428,56.323586 320.435730,56.323586 
	C320.435730,59.389530 320.435730,62.453873 320.435730,65.759094 
	C317.720184,65.759094 315.489838,65.759094 313.047821,65.759094 
	C313.047821,57.214466 313.047821,48.821152 313.047821,40.175171 
	C315.384033,40.175171 317.606262,40.175171 320.216370,40.175171 
	C320.216370,43.089043 320.216370,45.837421 320.216370,48.861183 
	C322.988678,48.861183 325.384064,48.861183 327.888641,48.861183 
	C328.223877,45.922226 328.552246,43.043652 329.329224,40.054192 
z"/>
<path fill="#0A0A0A" opacity="1.000000" stroke="none" 
	d="
M290.437622,41.287338 
	C299.767853,37.197624 306.278595,39.714970 308.073853,49.197315 
	C304.708099,47.829155 302.163330,46.533543 299.465149,45.810783 
	C298.163361,45.462086 296.572784,46.191578 295.112976,46.432869 
	C295.910309,47.465488 296.497681,48.920219 297.548615,49.443085 
	C299.753510,50.540058 302.350464,50.866867 304.519440,52.014523 
	C308.796967,54.277897 309.833588,60.090473 306.566620,63.477985 
	C303.032196,67.142822 298.466675,67.003914 293.957306,65.973351 
	C289.988220,65.066277 287.824371,62.388023 287.168121,56.472603 
	C290.630554,57.852898 293.118805,59.054005 295.735687,59.809849 
	C297.313721,60.265636 299.091705,60.029182 300.779877,60.103786 
	C300.946228,59.368881 301.112610,58.633980 301.278961,57.899075 
	C298.876495,56.933105 296.514343,55.847107 294.063873,55.024052 
	C287.184143,52.713303 285.617004,47.442295 290.437622,41.287338 
z"/>
<path fill="#060606" opacity="1.000000" stroke="none" 
	d="
M198.116241,65.518005 
	C195.501801,65.828140 193.192337,65.828140 190.279739,65.828140 
	C193.487228,57.587582 196.267517,49.454845 199.956406,41.757568 
	C200.744949,40.112217 204.830612,40.047020 207.545380,39.208134 
	C211.176270,48.562580 214.460419,57.023724 217.928268,65.958153 
	C214.291855,65.376503 210.576202,67.989342 208.378937,62.867569 
	C207.400909,60.587799 199.932190,62.553570 198.116241,65.518005 
M206.138382,54.280056 
	C205.601456,52.824570 205.064529,51.369083 204.050201,48.619465 
	C202.838425,52.028038 202.051926,54.240322 201.265427,56.452610 
	C201.538284,56.810276 201.811157,57.167946 202.084015,57.525616 
	C203.515427,56.688400 204.946823,55.851189 206.138382,54.280056 
z"/>
<path fill="#090909" opacity="1.000000" stroke="none" 
	d="
M355.907196,45.987160 
	C353.442963,45.987331 351.457336,45.987331 349.498322,45.987331 
	C349.049072,49.578194 349.049072,49.578194 357.916504,50.032864 
	C357.991730,51.734386 358.069061,53.483112 358.165527,55.665218 
	C356.524536,55.749950 355.089569,55.853603 353.652893,55.889988 
	C352.186340,55.927132 350.718109,55.898212 349.266510,55.898212 
	C349.160980,59.260651 349.160980,59.260651 359.372437,60.228916 
	C359.372437,61.931995 359.372437,63.669258 359.372437,65.711594 
	C353.492249,65.711594 347.591644,65.711594 341.426758,65.711594 
	C341.426758,57.251244 341.426758,48.852306 341.426758,40.184624 
	C347.285339,40.184624 353.016083,40.184624 359.318115,40.184624 
	C358.121948,42.286087 361.584503,45.947849 355.907196,45.987160 
z"/>
<path fill="#000000" opacity="1.000000" stroke="none" 
	d="
M275.857452,59.925941 
	C275.857452,53.149685 275.857452,46.863518 275.857452,40.258137 
	C278.237885,40.258137 280.447357,40.258137 282.934204,40.258137 
	C282.934204,48.615349 282.934204,56.995216 282.934204,65.685684 
	C280.820740,65.685684 278.603455,65.685684 275.857452,65.685684 
	C275.857452,63.942219 275.857452,62.179127 275.857452,59.925941 
z"/>
<path fill="#E8E8E8" opacity="1.000000" stroke="none" 
	d="
M109.226959,61.490372 
	C109.204277,55.759941 109.204277,50.488331 109.204277,45.216724 
	C108.907845,45.096966 108.611412,44.977207 108.314980,44.857452 
	C106.336777,47.769348 104.239471,50.608723 102.410942,53.611759 
	C100.196770,57.248161 98.281448,56.815689 96.208549,53.547886 
	C94.360832,50.635082 92.421173,47.780605 89.324219,45.000385 
	C89.324219,48.300816 89.678474,51.651939 89.215683,54.886150 
	C88.822990,57.630470 91.507477,61.699463 86.211884,63.420044 
	C86.211884,54.417873 86.211884,45.970676 86.211884,37.517151 
	C89.351387,37.156666 89.346107,37.160179 93.251175,43.032780 
	C95.179108,45.932087 97.130661,48.815689 99.151550,51.825581 
	C104.178078,47.346485 105.337250,39.672054 112.778458,35.806835 
	C112.778458,45.133732 112.897591,53.068821 112.718437,60.997169 
	C112.649086,64.066010 110.922478,63.475510 109.226959,61.490372 
z"/>
<path fill="#EFEFEF" opacity="1.000000" stroke="none" 
	d="
M166.110168,55.812500 
	C167.676849,58.181522 169.056488,60.227859 170.503998,62.374855 
	C166.628510,64.342033 165.758209,61.183998 164.393692,59.240833 
	C162.222702,56.149170 160.717819,52.144691 155.286148,54.169559 
	C152.848541,56.166996 157.948639,61.756741 151.750992,63.284470 
	C151.750992,54.258430 151.750992,45.821957 151.750992,36.963657 
	C155.530823,36.963657 159.151093,36.811634 162.752640,37.006241 
	C166.384064,37.202465 169.152771,38.973995 170.068359,42.671638 
	C170.962952,46.284462 170.456940,49.672562 167.129379,51.990974 
	C165.780945,52.930466 163.883728,53.470009 166.110168,55.812500 
M166.662125,43.112431 
	C163.654694,38.493771 159.239700,40.317204 155.221680,40.230946 
	C155.221680,43.834061 155.221680,47.060829 155.221680,50.265411 
	C165.175140,50.815105 166.637054,49.995628 166.662125,43.112431 
z"/>
<path fill="#DCDCDC" opacity="1.000000" stroke="none" 
	d="
M75.881348,44.078568 
	C75.679550,48.357899 75.872551,52.228851 75.181297,55.934868 
	C74.200752,61.191856 70.494110,63.656628 65.076836,63.439568 
	C59.972889,63.235062 56.437695,60.512684 55.911449,55.414295 
	C55.351395,49.988407 55.467369,44.484760 55.493767,39.016056 
	C55.497200,38.305187 56.726349,37.600231 57.387749,36.892536 
	C57.897831,37.732948 58.816475,38.557835 58.849098,39.416389 
	C59.012886,43.726620 58.845051,48.048882 58.984055,52.360775 
	C59.154297,57.641708 61.179764,59.950638 65.414993,60.039436 
	C69.774536,60.130844 71.858810,57.991405 72.120720,52.686481 
	C72.333321,48.380268 72.085480,44.049797 72.346115,39.748520 
	C72.414444,38.620831 73.614204,37.561703 74.294365,36.471085 
	C74.823357,36.719002 75.352356,36.966915 75.881355,37.214828 
	C75.881355,39.342068 75.881355,41.469303 75.881348,44.078568 
z"/>
<path fill="#F0F0F0" opacity="1.000000" stroke="none" 
	d="
M40.893959,50.048759 
	C43.089233,54.465939 45.288589,58.503029 47.487942,62.540119 
	C47.193626,62.876877 46.899315,63.213638 46.605000,63.550400 
	C45.354813,62.660881 43.848351,61.979057 42.917606,60.830639 
	C41.681099,59.304958 40.689541,57.497215 39.954948,55.665409 
	C38.349754,51.662617 35.649021,50.189518 31.047783,51.580532 
	C31.047783,55.175327 31.047783,58.937454 31.047783,62.699585 
	C30.502626,62.923203 29.957470,63.146816 29.412312,63.370434 
	C28.796877,62.278904 27.711647,61.218708 27.636452,60.091148 
	C26.502804,43.092148 27.191206,37.767338 30.893082,36.999489 
	C30.893082,40.653141 30.893082,44.218372 30.893082,47.636372 
	C36.940659,49.111622 40.124027,46.820332 41.749020,41.449558 
	C42.986912,37.358200 43.219795,37.428661 47.206932,37.180496 
	C44.956390,41.635342 42.927216,45.652004 40.893959,50.048759 
z"/>
<path fill="#F0F0F0" opacity="1.000000" stroke="none" 
	d="
M128.963715,40.857674 
	C130.190643,39.292614 131.309372,38.101875 132.428116,36.911140 
	C133.351257,38.111942 134.568436,39.186245 135.148560,40.534634 
	C138.275986,47.803703 141.245316,55.140793 144.269196,62.454414 
	C143.905441,62.795841 143.541687,63.137268 143.177933,63.478691 
	C142.059662,62.401176 140.383667,61.513512 139.938828,60.206753 
	C139.003372,57.458733 137.377686,56.836658 134.739868,57.014992 
	C130.256699,57.318073 124.821342,55.309513 123.490227,62.375679 
	C123.412918,62.786060 121.511909,62.852890 119.768120,63.228577 
	C122.980377,55.453114 125.917953,48.342548 128.963715,40.857674 
M133.948151,45.786877 
	C133.451385,44.705410 132.954605,43.623943 132.096085,41.754925 
	C130.270554,46.227680 128.763626,49.919819 127.228859,53.680176 
	C130.766434,53.680176 133.783112,53.680176 137.137009,53.680176 
	C136.033752,51.025734 135.092896,48.762012 133.948151,45.786877 
z"/>
<path fill="#E1E1E1" opacity="1.000000" stroke="none" 
	d="
M228.044037,47.330727 
	C230.003143,46.637177 231.952484,46.287903 233.913147,46.204369 
	C234.102783,46.196289 234.798416,48.376240 234.509308,48.608978 
	C233.584946,49.353096 232.219696,50.172199 231.189758,49.996181 
	C230.044418,49.800446 229.080383,48.543743 228.044037,47.330727 
z"/>
<path fill="#F7F7F7" opacity="1.000000" stroke="none" 
	d="
M230.083466,55.546440 
	C232.135300,56.440094 233.716599,57.347927 235.297897,58.255760 
	C233.191605,59.165497 231.085297,60.075233 228.979004,60.984974 
	C228.546570,60.514347 228.114136,60.043720 227.681702,59.573097 
	C228.325455,58.235603 228.969193,56.898113 230.083466,55.546440 
z"/>
<path fill="#D8D8D8" opacity="1.000000" stroke="none" 
	d="
M206.258301,54.647015 
	C204.946823,55.851189 203.515427,56.688400 202.084015,57.525616 
	C201.811157,57.167946 201.538284,56.810276 201.265427,56.452610 
	C202.051926,54.240322 202.838425,52.028038 204.050201,48.619465 
	C205.064529,51.369083 205.601456,52.824570 206.258301,54.647015 
z"/>
<path fill="#040404" opacity="1.000000" stroke="none" 
	d="
M166.783707,43.502861 
	C166.637054,49.995628 165.175140,50.815105 155.221680,50.265411 
	C155.221680,47.060829 155.221680,43.834061 155.221680,40.230946 
	C159.239700,40.317204 163.654694,38.493771 166.783707,43.502861 
z"/>
<path fill="#0C0C0C" opacity="1.000000" stroke="none" 
	d="
M134.050079,46.142586 
	C135.092896,48.762012 136.033752,51.025734 137.137009,53.680176 
	C133.783112,53.680176 130.766434,53.680176 127.228859,53.680176 
	C128.763626,49.919819 130.270554,46.227680 132.096085,41.754925 
	C132.954605,43.623943 133.451385,44.705410 134.050079,46.142586 
z"/>
</svg>